<?xml version="1.0" encoding="utf-8"?>
<svg xmlns="http://www.w3.org/2000/svg" viewBox="0 0 500 500" xmlns:bx="https://boxy-svg.com" width="500px" height="500px"><defs><bx:export><bx:file format="svg"/></bx:export></defs><ellipse style="stroke: rgb(0, 0, 0); fill: none; paint-order: stroke; stroke-width: 35px;" cx="125.542" cy="129.567" rx="86.935" ry="85.129"/><path style="stroke: rgb(0, 0, 0); fill: none; paint-order: stroke; stroke-width: 35px; stroke-miterlimit: 3.62;" d="M 42.218 447.384 C 38.951 425.543 40.058 408.22 43.25 390.63 C 58.38 307.255 126.981 286.586 156.239 270.417 C 171.238 262.128 187.616 252.285 202.674 244.104 C 209.521 240.384 221.733 233.058 228.47 229.143 C 241.956 221.305 249.464 216.703 263.039 209.021 C 271.766 204.082 283.251 197.533 291.931 192.511 C 304.2 185.413 327.32 172.335 338.881 164.134 C 363.893 146.393 407.682 129.094 431.233 87.776 C 443.762 65.795 443.921 39.638 440.005 15.545"/><rect x="266.134" y="270.417" width="189.864" height="184.189" style="stroke: rgb(0, 0, 0); fill: none; stroke-width: 35px;"/></svg>